<?xml version="1.0" encoding="utf-8"?>
<!-- Generator: Adobe Illustrator 16.0.3, SVG Export Plug-In . SVG Version: 6.00 Build 0)  -->
<!DOCTYPE svg PUBLIC "-//W3C//DTD SVG 1.1//EN" "http://www.w3.org/Graphics/SVG/1.1/DTD/svg11.dtd">
<svg version="1.1" id="Layer_1" xmlns="http://www.w3.org/2000/svg" xmlns:xlink="http://www.w3.org/1999/xlink" x="0px" y="0px"
	 width="195.752px" height="200.385px" viewBox="0 0 195.752 200.385" enable-background="new 0 0 195.752 200.385"
	 xml:space="preserve">
<rect x="0.027" fill="#806464" width="195.725" height="55.921"/>
<rect x="0.027" y="27.96" fill="#60514F" width="195.725" height="172.294"/>
<rect x="0.027" y="55.921" fill="#E5E5E5" width="195.725" height="27.96"/>
<rect x="0.027" y="83.882" fill="#E5E5E5" width="195.725" height="27.961"/>
<rect x="0.027" y="111.843" fill="#E5E5E5" width="195.725" height="27.961"/>
<rect x="0.027" y="139.804" fill="#E5E5E5" width="195.725" height="27.961"/>
<rect x="0.027" y="167.765" fill="#E5E5E5" width="195.725" height="27.961"/>
<line fill="none" stroke="#FFFFFF" stroke-miterlimit="10" x1="0.027" y1="112.425" x2="195.752" y2="112.425"/>
<line fill="none" stroke="#FFFFFF" stroke-miterlimit="10" x1="0.027" y1="168.347" x2="195.752" y2="168.347"/>
<line fill="none" stroke="#FFFFFF" stroke-miterlimit="10" x1="0.027" y1="140.386" x2="195.752" y2="140.386"/>
<line fill="none" stroke="#FFFFFF" stroke-miterlimit="10" x1="0.027" y1="83.299" x2="195.752" y2="83.299"/>
<line fill="none" stroke="#FFFFFF" stroke-miterlimit="10" x1="0.027" y1="55.921" x2="195.752" y2="55.921"/>
<line fill="none" stroke="#FFFFFF" stroke-miterlimit="10" x1="0.027" y1="195.726" x2="195.752" y2="195.726"/>
<rect x="-0.166" y="7.573" fill="none" width="196.11" height="12.815"/>
<text transform="matrix(0.8752 0 0 1 51.8037 19.4795)" fill="#FFFFFF" font-family="'GothamMedium'" font-size="16.3104">FEBRUARY</text>
<rect x="10.126" y="36.698" fill="none" width="175.043" height="12.815"/>
<text transform="matrix(0.8752 0 0 1 10.126 47.0723)" fill="#FFFFFF" font-family="'Montserrat-Regular'" font-size="13.9803">S</text>
<text transform="matrix(0.8752 0 0 1 17.7373 47.0723)" fill="#FFFFFF" font-family="'Montserrat-Regular'" font-size="13.9803" letter-spacing="15.996"> </text>
<text transform="matrix(0.8752 0 0 1 36.4199 47.0723)" fill="#FFFFFF" font-family="'Montserrat-Regular'" font-size="13.9803">M</text>
<text transform="matrix(0.8752 0 0 1 47.7373 47.0723)" fill="#FFFFFF" font-family="'Montserrat-Regular'" font-size="13.9803" letter-spacing="15.996"> </text>
<text transform="matrix(0.8752 0 0 1 66.4199 47.0723)" fill="#FFFFFF" font-family="'Montserrat-Regular'" font-size="13.9803">T</text>
<text transform="matrix(0.8752 0 0 1 73.5049 47.0723)" fill="#FFFFFF" font-family="'Montserrat-Regular'" font-size="13.9803" letter-spacing="15.996"> </text>
<text transform="matrix(0.8752 0 0 1 92.1865 47.0723)" fill="#FFFFFF" font-family="'Montserrat-Regular'" font-size="13.9803">W</text>
<text transform="matrix(0.8752 0 0 1 104.8623 47.0723)" fill="#FFFFFF" font-family="'Montserrat-Regular'" font-size="13.9803" letter-spacing="15.996"> </text>
<text transform="matrix(0.8752 0 0 1 123.4717 47.0723)" fill="#FFFFFF" font-family="'Montserrat-Regular'" font-size="13.9803">H</text>
<text transform="matrix(0.8752 0 0 1 133.1514 47.0723)" fill="#FFFFFF" font-family="'Montserrat-Regular'" font-size="13.9803" letter-spacing="15.996"> </text>
<text transform="matrix(0.8752 0 0 1 151.834 47.0723)" fill="#FFFFFF" font-family="'Montserrat-Regular'" font-size="13.9803">F</text>
<text transform="matrix(0.8752 0 0 1 158.8691 47.0723)" fill="#FFFFFF" font-family="'Montserrat-Regular'" font-size="13.9803" letter-spacing="15.996"> </text>
<text transform="matrix(0.8752 0 0 1 177.5518 47.0723)" fill="#FFFFFF" font-family="'Montserrat-Regular'" font-size="13.9803">S</text>
<rect x="8.087" y="63.494" fill="none" width="177.082" height="12.815"/>
<text transform="matrix(0.8752 0 0 1 8.0879 73.8682)" fill="#808080" font-family="'Montserrat-Regular'" font-size="13.9803">31</text>
<text transform="matrix(0.8752 0 0 1 19.418 73.8682)" fill="#333333" font-family="'Montserrat-Regular'" font-size="13.9803" letter-spacing="18.282"> </text>
<text transform="matrix(0.8752 0 0 1 40.3154 73.8682)" fill="#333333" font-family="'Montserrat-Regular'" font-size="13.9803">1</text>
<text transform="matrix(0.8752 0 0 1 45.0508 73.8682)" fill="#333333" font-family="'Montserrat-Regular'" font-size="13.9803" letter-spacing="18.282"> </text>
<text transform="matrix(0.8752 0 0 1 65.9473 73.8682)" fill="#333333" font-family="'Montserrat-Regular'" font-size="13.9803">2</text>
<text transform="matrix(0.8752 0 0 1 73.1416 73.8682)" fill="#333333" font-family="'Montserrat-Regular'" font-size="13.9803" letter-spacing="18.282"> </text>
<text transform="matrix(0.8752 0 0 1 94.04 73.8682)" fill="#333333" font-family="'Montserrat-Regular'" font-size="13.9803">3</text>
<text transform="matrix(0.8752 0 0 1 100.6338 73.8682)" fill="#333333" font-family="'Montserrat-Regular'" font-size="13.9803" letter-spacing="18.282"> </text>
<text transform="matrix(0.8752 0 0 1 121.4502 73.8682)" fill="#333333" font-family="'Montserrat-Regular'" font-size="13.9803">4</text>
<text transform="matrix(0.8752 0 0 1 128.7793 73.8682)" fill="#333333" font-family="'Montserrat-Regular'" font-size="13.9803" letter-spacing="18.282"> </text>
<text transform="matrix(0.8752 0 0 1 149.6768 73.8682)" fill="#333333" font-family="'Montserrat-Regular'" font-size="13.9803">5</text>
<text transform="matrix(0.8752 0 0 1 156.7383 73.8682)" fill="#333333" font-family="'Montserrat-Regular'" font-size="13.9803" letter-spacing="18.282"> </text>
<text transform="matrix(0.8752 0 0 1 177.6348 73.8682)" fill="#333333" font-family="'Montserrat-Regular'" font-size="13.9803">6</text>
<rect x="10.126" y="91.455" fill="none" width="62.909" height="12.813"/>
<text transform="matrix(0.8752 0 0 1 10.126 101.8291)" fill="#333333" font-family="'Montserrat-Regular'" font-size="13.9803">7</text>
<text transform="matrix(0.8752 0 0 1 17.1006 101.8291)" fill="#333333" font-family="'Montserrat-Regular'" font-size="13.9803" letter-spacing="17.139"> </text>
<text transform="matrix(0.8752 0 0 1 37.4746 101.8291)" fill="#333333" font-family="'Montserrat-Regular'" font-size="13.9803">8</text>
<text transform="matrix(0.8752 0 0 1 45.1348 101.8291)" fill="#333333" font-family="'Montserrat-Regular'" font-size="13.9803" letter-spacing="17.139"> </text>
<text transform="matrix(0.8752 0 0 1 65.5078 101.8291)" fill="#333333" font-family="'Montserrat-Regular'" font-size="13.9803">9 </text>
<rect x="91.678" y="91.455" fill="none" width="95.625" height="12.813"/>
<text transform="matrix(0.8752 0 0 1 91.6787 101.8291)" fill="#333333" font-family="'Montserrat-Regular'" font-size="13.9803">10</text>
<text transform="matrix(0.8752 0 0 1 104.8682 101.8291)" fill="#333333" font-family="'Montserrat-Regular'" font-size="13.9803" letter-spacing="12.569"> </text>
<text transform="matrix(0.8752 0 0 1 121.4355 101.8291)" fill="#333333" font-family="'Montserrat-Regular'" font-size="13.9803">11</text>
<text transform="matrix(0.8752 0 0 1 130.9062 101.8291)" fill="#333333" font-family="'Montserrat-Regular'" font-size="13.9803" letter-spacing="12.569"> </text>
<text transform="matrix(0.8752 0 0 1 147.4727 101.8291)" fill="#333333" font-family="'Montserrat-Regular'" font-size="13.9803">12</text>
<text transform="matrix(0.8752 0 0 1 159.4023 101.8291)" fill="#333333" font-family="'Montserrat-Regular'" font-size="13.9803" letter-spacing="12.569"> </text>
<text transform="matrix(0.8752 0 0 1 175.9697 101.8291)" fill="#333333" font-family="'Montserrat-Regular'" font-size="13.9803">13</text>
<rect x="7.796" y="121.163" fill="none" width="181.742" height="12.814"/>
<text transform="matrix(0.8752 0 0 1 7.7959 131.5371)" fill="#333333" font-family="'Montserrat-Regular'" font-size="13.9803">14</text>
<text transform="matrix(0.8752 0 0 1 19.8604 131.5371)" fill="#333333" font-family="'Montserrat-Regular'" font-size="13.9803" letter-spacing="11.426"> </text>
<text transform="matrix(0.8752 0 0 1 35.4609 131.5371)" fill="#333333" font-family="'Montserrat-Regular'" font-size="13.9803">15</text>
<text transform="matrix(0.8752 0 0 1 47.2559 131.5371)" fill="#333333" font-family="'Montserrat-Regular'" font-size="13.9803" letter-spacing="11.426"> </text>
<text transform="matrix(0.8752 0 0 1 62.8564 131.5371)" fill="#333333" font-family="'Montserrat-Regular'" font-size="13.9803">16</text>
<text transform="matrix(0.8752 0 0 1 75.1162 131.5371)" fill="#333333" font-family="'Montserrat-Regular'" font-size="13.9803" letter-spacing="11.426"> </text>
<text transform="matrix(0.8752 0 0 1 90.7168 131.5371)" fill="#333333" font-family="'Montserrat-Regular'" font-size="13.9803">17</text>
<text transform="matrix(0.8752 0 0 1 102.4248 131.5371)" fill="#333333" font-family="'Montserrat-Regular'" font-size="13.9803" letter-spacing="11.426"> </text>
<text transform="matrix(0.8752 0 0 1 118.0254 131.5371)" fill="#333333" font-family="'Montserrat-Regular'" font-size="13.9803">18</text>
<text transform="matrix(0.8752 0 0 1 130.4209 131.5371)" fill="#333333" font-family="'Montserrat-Regular'" font-size="13.9803" letter-spacing="11.426"> </text>
<text transform="matrix(0.8752 0 0 1 146.0215 131.5371)" fill="#333333" font-family="'Montserrat-Regular'" font-size="13.9803">19</text>
<text transform="matrix(0.8752 0 0 1 158.2803 131.5371)" fill="#333333" font-family="'Montserrat-Regular'" font-size="13.9803" letter-spacing="11.426"> </text>
<text transform="matrix(0.8752 0 0 1 173.8809 131.5371)" fill="#333333" font-family="'Montserrat-Regular'" font-size="13.9803">20</text>
<rect x="7.796" y="149.415" fill="none" width="180.771" height="12.814"/>
<text transform="matrix(0.8752 0 0 1 7.7959 159.7891)" fill="#333333" font-family="'Montserrat-Regular'" font-size="13.9803">21</text>
<text transform="matrix(0.8752 0 0 1 19.7256 159.7891)" fill="#333333" font-family="'Montserrat-Regular'" font-size="13.9803" letter-spacing="10.283"> </text>
<text transform="matrix(0.8752 0 0 1 33.5576 159.7891)" fill="#333333" font-family="'Montserrat-Regular'" font-size="13.9803">22</text>
<text transform="matrix(0.8752 0 0 1 47.9453 159.7891)" fill="#333333" font-family="'Montserrat-Regular'" font-size="13.9803" letter-spacing="10.283"> </text>
<text transform="matrix(0.8752 0 0 1 61.7773 159.7891)" fill="#333333" font-family="'Montserrat-Regular'" font-size="13.9803">23</text>
<text transform="matrix(0.8752 0 0 1 75.5664 159.7891)" fill="#333333" font-family="'Montserrat-Regular'" font-size="13.9803" letter-spacing="10.283"> </text>
<text transform="matrix(0.8752 0 0 1 89.3975 159.7891)" fill="#333333" font-family="'Montserrat-Regular'" font-size="13.9803">24</text>
<text transform="matrix(0.8752 0 0 1 103.9209 159.7891)" fill="#333333" font-family="'Montserrat-Regular'" font-size="13.9803" letter-spacing="10.283"> </text>
<text transform="matrix(0.8752 0 0 1 117.7529 159.7891)" fill="#333333" font-family="'Montserrat-Regular'" font-size="13.9803">25</text>
<text transform="matrix(0.8752 0 0 1 132.0068 159.7891)" fill="#333333" font-family="'Montserrat-Regular'" font-size="13.9803" letter-spacing="10.283"> </text>
<text transform="matrix(0.8752 0 0 1 145.8389 159.7891)" fill="#333333" font-family="'Montserrat-Regular'" font-size="13.9803">26</text>
<text transform="matrix(0.8752 0 0 1 160.5576 159.7891)" fill="#333333" font-family="'Montserrat-Regular'" font-size="13.9803" letter-spacing="10.283"> </text>
<text transform="matrix(0.8752 0 0 1 174.3887 159.7891)" fill="#333333" font-family="'Montserrat-Regular'" font-size="13.9803">27</text>
<rect x="7.796" y="176.793" fill="none" width="69.51" height="12.815"/>
<text transform="matrix(0.8752 0 0 1 7.7959 187.167)" fill="#333333" font-family="'Montserrat-Regular'" font-size="13.9803">28</text>
<text transform="matrix(0.8752 0 0 1 22.6504 187.167)" fill="#333333" font-family="'Montserrat-Regular'" font-size="13.9803" letter-spacing="7.998"> </text>
<text transform="matrix(0.8752 0 0 1 35.0928 187.167)" fill="#333333" font-family="'Montserrat-Regular'" font-size="13.9803">29</text>
<text transform="matrix(0.8752 0 0 1 49.8115 187.167)" fill="#333333" font-family="'Montserrat-Regular'" font-size="13.9803" letter-spacing="7.998"> </text>
<text transform="matrix(0.8752 0 0 1 62.2539 187.167)" fill="#333333" font-family="'Montserrat-Regular'" font-size="13.9803">30 </text>
<rect x="95.173" y="176.793" fill="none" width="89.411" height="12.815"/>
<text transform="matrix(0.8752 0 0 1 95.1738 187.167)" fill="#808080" font-family="'Montserrat-Regular'" font-size="13.9803">1</text>
<text transform="matrix(0.8752 0 0 1 99.9082 187.167)" fill="#808080" font-family="'Montserrat-Regular'" font-size="13.9803" letter-spacing="18.282"> </text>
<text transform="matrix(0.8752 0 0 1 121.0928 187.167)" fill="#808080" font-family="'Montserrat-Regular'" font-size="13.9803">2</text>
<text transform="matrix(0.8752 0 0 1 128.2871 187.167)" fill="#808080" font-family="'Montserrat-Regular'" font-size="13.9803" letter-spacing="18.282"> </text>
<text transform="matrix(0.8752 0 0 1 149.4707 187.167)" fill="#808080" font-family="'Montserrat-Regular'" font-size="13.9803">3</text>
<text transform="matrix(0.8752 0 0 1 156.0664 187.167)" fill="#808080" font-family="'Montserrat-Regular'" font-size="13.9803" letter-spacing="18.282"> </text>
<text transform="matrix(0.8752 0 0 1 177.251 187.167)" fill="#808080" font-family="'Montserrat-Regular'" font-size="13.9803">4</text>
<line fill="none" stroke="#FFFFFF" stroke-miterlimit="10" x1="27.988" y1="195.726" x2="27.988" y2="55.921"/>
<line fill="none" stroke="#FFFFFF" stroke-miterlimit="10" x1="55.949" y1="195.726" x2="55.949" y2="55.921"/>
<line fill="none" stroke="#FFFFFF" stroke-miterlimit="10" x1="83.909" y1="195.726" x2="83.909" y2="55.921"/>
<line fill="none" stroke="#FFFFFF" stroke-miterlimit="10" x1="111.87" y1="195.726" x2="111.87" y2="55.921"/>
<line fill="none" stroke="#FFFFFF" stroke-miterlimit="10" x1="139.831" y1="195.726" x2="139.831" y2="55.921"/>
<line fill="none" stroke="#FFFFFF" stroke-miterlimit="10" x1="167.791" y1="195.726" x2="167.791" y2="55.921"/>
<polyline fill="none" stroke="#FFFFFF" stroke-width="0.75" stroke-linecap="square" stroke-miterlimit="10" points="
	180.594,12.161 182.362,14.091 180.594,16.021 "/>
<polyline fill="none" stroke="#FFFFFF" stroke-width="0.75" stroke-linecap="square" stroke-miterlimit="10" points="14.612,12.161 
	12.843,14.091 14.612,16.021 "/>
<line fill="none" stroke="#000000" stroke-miterlimit="10" x1="122.063" y1="105.435" x2="130.22" y2="105.435"/>
<line fill="none" stroke="#000000" stroke-miterlimit="10" x1="92.551" y1="163.396" x2="100.706" y2="163.396"/>
<line fill="none" stroke="#000000" stroke-miterlimit="10" x1="37.503" y1="135.144" x2="45.658" y2="135.144"/>
<line fill="none" stroke="#000000" stroke-miterlimit="10" x1="64.88" y1="135.144" x2="73.035" y2="135.144"/>
</svg>
