<?xml version="1.0" encoding="utf-8"?>
<!-- Generator: Adobe Illustrator 16.0.3, SVG Export Plug-In . SVG Version: 6.00 Build 0)  -->
<!DOCTYPE svg PUBLIC "-//W3C//DTD SVG 1.1//EN" "http://www.w3.org/Graphics/SVG/1.1/DTD/svg11.dtd">
<svg version="1.1" id="Layer_1" xmlns="http://www.w3.org/2000/svg" xmlns:xlink="http://www.w3.org/1999/xlink" x="0px" y="0px"
	 width="100px" height="100px" viewBox="0 0 100 100" enable-background="new 0 0 100 100" xml:space="preserve">
<circle fill="#806464" stroke="#000000" stroke-miterlimit="10" cx="50.491" cy="49.957" r="46.509"/>
<path fill="#FFFFFF" stroke="#000000" stroke-miterlimit="10" d="M13.179,50c0,20.607,16.706,37.312,37.312,37.312
	S87.803,70.607,87.803,50c0-20.607-16.705-37.312-37.312-37.312C29.884,12.688,13.179,29.393,13.179,50"/>
<line fill="none" stroke="#000000" stroke-miterlimit="10" x1="69.236" y1="82.264" x2="73.602" y2="89.777"/>
<line fill="none" stroke="#000000" stroke-miterlimit="10" x1="27.398" y1="10.222" x2="31.761" y2="17.733"/>
<line fill="none" stroke="#000000" stroke-miterlimit="10" x1="82.979" y1="68.359" x2="90.544" y2="72.637"/>
<line fill="none" stroke="#000000" stroke-miterlimit="10" x1="10.455" y1="27.362" x2="18.008" y2="31.631"/>
<line fill="none" stroke="#000000" stroke-miterlimit="10" x1="31.757" y1="82.271" x2="27.398" y2="89.777"/>
<line fill="none" stroke="#000000" stroke-miterlimit="10" x1="73.602" y1="10.222" x2="69.236" y2="17.736"/>
<line fill="none" stroke="#000000" stroke-miterlimit="10" x1="18.008" y1="68.367" x2="10.455" y2="72.637"/>
<line fill="none" stroke="#000000" stroke-miterlimit="10" x1="90.544" y1="27.362" x2="82.977" y2="31.641"/>
<line fill="none" stroke="#000000" stroke-miterlimit="10" x1="50.5" y1="13" x2="50.5" y2="3"/>
<line fill="none" stroke="#000000" stroke-width="2" stroke-linecap="square" stroke-miterlimit="10" x1="75.264" y1="63.854" x2="50.5" y2="50"/>
<line fill="none" stroke="#000000" stroke-width="2" stroke-linecap="square" stroke-miterlimit="10" x1="50.531" y1="10.525" x2="50.5" y2="50"/>
<line fill="none" stroke="#000000" stroke-miterlimit="10" x1="50.5" y1="96" x2="50.5" y2="87"/>
<line fill="none" stroke="#000000" stroke-miterlimit="10" x1="87.802" y1="49.958" x2="97" y2="49.958"/>
<line fill="none" stroke="#000000" stroke-miterlimit="10" x1="3.982" y1="49.958" x2="13.18" y2="49.958"/>
<circle stroke="#000000" stroke-miterlimit="10" cx="50.491" cy="49.958" r="3.875"/>
</svg>
